<svg id="Capa_1" enable-background="new 0 0 497 497" height="512" viewBox="0 0 497 497" width="512" xmlns="http://www.w3.org/2000/svg"><g><path d="m318.027 5.187h-209.732c-21.455 0-38.848 17.393-38.848 38.848v87.547h287.427v-87.547c.001-21.455-17.392-38.848-38.847-38.848z" fill="#dedede"/><path d="m53.728 430.608h389.545l33.139-52.561v-29.067l-18.802-26.386 16.659-26.386c-3.914-13.631-13.024-25.452-25.696-32.653l-9.12-5.176c-11.175-6.351-19.16-17.124-21.988-29.669l-18.729-83.214c-4.413-19.58-21.792-33.485-41.861-33.485h-287.423c-23.7 0-42.908 19.208-42.908 42.908v223.13z" fill="#ff748f"/><path d="m381.783 248.407-21.235-94.316c-.389-1.73-1.9-2.938-3.673-2.938h-68.237c-2.076 0-3.766 1.689-3.766 3.766v93.489h96.911z" fill="#5c586f"/><path d="m476.412 311.385v37.595h-19.13c-10.196 0-18.475-8.269-18.475-18.465v-15.842c0-10.196 8.278-18.465 18.475-18.465h16.987c1.409 4.873 2.143 9.971 2.143 15.177z" fill="#f8e86a"/><path d="m483.056 378.048h-25.839c-7.701 0-13.944 6.243-13.944 13.944v38.616h39.783c7.701 0 13.944-6.243 13.944-13.944v-24.672c0-7.701-6.243-13.944-13.944-13.944z" fill="#c7c5cb"/><path d="m97.201 238.632c0-45.648 10.875-88.7 30.111-126.622h-57.86c-23.7 0-42.908 19.208-42.908 42.908v223.13l27.184 52.561h119.703c-47.177-49.657-76.23-117.35-76.23-191.977z" fill="#fd5f7e"/><path d="m13.944 378.048h25.839c7.701 0 13.944 6.243 13.944 13.944v38.616h-39.783c-7.701 0-13.944-6.243-13.944-13.944v-24.672c0-7.701 6.243-13.944 13.944-13.944z" fill="#c7c5cb"/><circle cx="150.005" cy="430.534" fill="#5c586f" r="61.279"/><circle cx="150.005" cy="430.534" fill="#c7c5cb" r="24.645"/><circle cx="348.098" cy="430.534" fill="#5c586f" r="61.279"/><circle cx="348.098" cy="430.534" fill="#c7c5cb" r="24.645"/><path d="m75.563 181.564h158.673v89.745h-158.673z" fill="#f8e86a"/><path d="m97.201 238.632c0-19.567 2.01-38.653 5.807-57.068h-27.445v89.746h23.535c-1.24-10.719-1.897-21.62-1.897-32.678z" fill="#f8d070"/><path d="m82.042 155.067c-6.956 0-12.595 5.639-12.595 12.595v7.401c0 15.667 12.284 28.911 27.945 29.34 16.249.446 29.561-12.594 29.561-28.742v-20.593h-44.911z" fill="#5bd6fd"/><path d="m184.461 155.067h-57.507v19.995c0 15.667 12.284 28.911 27.945 29.34 16.249.446 29.561-12.594 29.561-28.742v-20.593z" fill="#fff"/><path d="m229.373 155.067h-44.912v19.995c0 15.667 12.284 28.911 27.945 29.34 16.249.446 29.561-12.594 29.561-28.742v-7.999c.001-6.955-5.638-12.594-12.594-12.594z" fill="#5bd6fd"/><path d="m237.31 261.513h-163.205c-7.824 0-14.167 6.343-14.167 14.167v12.851c0 7.824 6.343 14.167 14.167 14.167h163.205c7.824 0 14.167-6.343 14.167-14.167v-12.851c.001-7.824-6.342-14.167-14.167-14.167z" fill="#5bd6fd"/><path d="m329.07 290.88h-25.17c-10.509 0-19.028 8.519-19.028 19.028 0 6.827 5.535 12.362 12.362 12.362h38.503c6.827 0 12.362-5.535 12.362-12.362-.001-10.509-8.52-19.028-19.029-19.028z" fill="#c7c5cb"/><g fill="#00c4fc"><g><path d="m134.322 44.266c4.142 0 7.5-3.358 7.5-7.5s-3.358-7.5-7.5-7.5h-17.83c-4.142 0-7.5 3.358-7.5 7.5v43.99c0 4.142 3.358 7.5 7.5 7.5s7.5-3.358 7.5-7.5v-14.912h8.913c4.142 0 7.5-3.358 7.5-7.5s-3.358-7.5-7.5-7.5h-8.913v-6.579h10.33z"/><path d="m307.161 30.252h-12.18c-4.062 0-7.5 3.263-7.5 7.544 0 45.388-.066 42.475.116 43.535.138 1.788.906 3.476 2.187 4.748 2.392 2.374 5.412 2.197 5.312 2.177.369-.001 9.067-.035 12.552-.096 14.126-.247 24.379-12.403 24.379-28.906 0-17.076-10.226-29.002-24.866-29.002zm.225 42.91c-1.16.021-2.967.038-4.843.052-.046-15.291-.017-9.715-.049-27.962h4.667c9.155 0 9.866 10.717 9.866 14.002 0 6.839-2.981 13.792-9.641 13.908z"/><path d="m178.702 28.941c-16.354 0-29.658 13.304-29.658 29.657s13.304 29.657 29.658 29.657c16.353 0 29.657-13.304 29.657-29.657s-13.304-29.657-29.657-29.657zm0 44.315c-8.083 0-14.658-6.575-14.658-14.657s6.575-14.657 14.658-14.657c8.082 0 14.657 6.575 14.657 14.657s-6.575 14.657-14.657 14.657z"/><path d="m247.653 28.941c-16.353 0-29.657 13.304-29.657 29.657s13.304 29.657 29.657 29.657 29.657-13.304 29.657-29.657-13.304-29.657-29.657-29.657zm0 44.315c-8.082 0-14.657-6.575-14.657-14.657s6.575-14.657 14.657-14.657 14.657 6.575 14.657 14.657-6.575 14.657-14.657 14.657z"/></g><path d="m98.134 261.513h-24.029c-7.824 0-14.167 6.343-14.167 14.167v12.851c0 7.824 6.343 14.167 14.167 14.167h30.441c-3.118-13.377-5.281-27.131-6.412-41.185z"/><path d="m99.273 204.387c2.059-16.967 5.632-33.453 10.569-49.32h-27.8c-6.956 0-12.595 5.639-12.595 12.595v7.401c0 15.667 12.284 28.911 27.945 29.34.633.017 1.259.006 1.881-.016z"/></g></g></svg>